<svg xmlns="http://www.w3.org/2000/svg" width="64" height="64" viewBox="0 0 48 48"><path fill="none" stroke="currentColor" stroke-linecap="round" stroke-linejoin="round" d="M12.73 4.5v39h24.73a2 2 0 0 0 2-2V17.32L45.07 11A1 1 0 0 0 45 9.63l-1.77-1.57a1 1 0 0 0-1.39.08l-2.38 2.68V6.5a2 2 0 0 0-2-2ZM32 19.18l3.23 2.87l-3.77 4.24l-3 3.35l-2.4 2.7l-2.49 2.81l-5.67 3.18l2.49-6l2.49-2.8h0l5.39-6l.24-.28Zm7.46-8.36l-7.43 8.36m3.23 2.87l4.2-4.73M8.4 6.45v35.1a2 2 0 0 0 1.95 2h2.38V4.5h-2.38A2 2 0 0 0 8.4 6.45"/></svg>